# xmcd
#
# Track frame offsets: 
#        150
#        21976
#        38928
#        54906
#        72420
#        93234
#        110560
#        127474
#        142888
#        161490
#        179568
#        194346
#
# Disc length: 2841 seconds
#
# Revision: 0
# Processed by: cddbd v1.5.2PL0 Copyright (c) Steve Scherf et al.
# Submitted via: ExactAudioCopy v1.0b3
#
DISCID=af0b170c
DTITLE=Sandhy Sondoro - Vulnerability 
DYEAR=2014
DGENRE=Rock
TTITLE0=Kaulah
TTITLE1=Ku Tak Mau Tergesa - gesa (Untuk Katakan Cinta)
TTITLE2=For Aeshan
TTITLE3=Still in Love
TTITLE4=Dan Itu Yang Aku Cinta
TTITLE5=She's The One I Love
TTITLE6=Divine Intervention
TTITLE7=Getting Old
TTITLE8=The Heart is Weak
TTITLE9=Dalam Pelukan Jiwa
TTITLE10=God Bless You Mama
TTITLE11=Air Di Bumi Kita
EXTD=
EXTT0=
EXTT1=
EXTT2=
EXTT3=
EXTT4=
EXTT5=
EXTT6=
EXTT7=
EXTT8=
EXTT9=
EXTT10=
EXTT11=
PLAYORDER=
